<svg id="visual" viewBox="0 0 900 600" width="900" height="600" xmlns="http://www.w3.org/2000/svg" xmlns:xlink="http://www.w3.org/1999/xlink" version="1.1"><path d="M281 0L257.2 12.5C233.3 25 185.7 50 162.8 75C140 100 142 125 154.8 150C167.7 175 191.3 200 193.7 225C196 250 177 275 198.3 300C219.7 325 281.3 350 318 375C354.7 400 366.3 425 334.7 450C303 475 228 500 213.5 525C199 550 245 575 268 587.5L291 600L0 600L0 587.5C0 575 0 550 0 525C0 500 0 475 0 450C0 425 0 400 0 375C0 350 0 325 0 300C0 275 0 250 0 225C0 200 0 175 0 150C0 125 0 100 0 75C0 50 0 25 0 12.5L0 0Z" fill="#fce8d5" stroke-linecap="round" stroke-linejoin="miter"></path></svg>