<svg id="visual" viewBox="0 0 900 600" width="900" height="600" xmlns="http://www.w3.org/2000/svg" xmlns:xlink="http://www.w3.org/1999/xlink" version="1.1"><rect x="0" y="0" width="900" height="600" fill="#efa926"></rect><defs><linearGradient id="grad1_0" x1="33.3%" y1="100%" x2="100%" y2="0%"><stop offset="20%" stop-color="#e9dbcb" stop-opacity="1"></stop><stop offset="80%" stop-color="#e9dbcb" stop-opacity="1"></stop></linearGradient></defs><defs><linearGradient id="grad1_1" x1="33.3%" y1="100%" x2="100%" y2="0%"><stop offset="20%" stop-color="#e9dbcb" stop-opacity="1"></stop><stop offset="80%" stop-color="#efa926" stop-opacity="1"></stop></linearGradient></defs><defs><linearGradient id="grad2_0" x1="0%" y1="100%" x2="66.7%" y2="0%"><stop offset="20%" stop-color="#e9dbcb" stop-opacity="1"></stop><stop offset="80%" stop-color="#e9dbcb" stop-opacity="1"></stop></linearGradient></defs><defs><linearGradient id="grad2_1" x1="0%" y1="100%" x2="66.7%" y2="0%"><stop offset="20%" stop-color="#efa926" stop-opacity="1"></stop><stop offset="80%" stop-color="#e9dbcb" stop-opacity="1"></stop></linearGradient></defs><g transform="translate(900, 600)"><path d="M-457 0C-434.4 -49.7 -411.7 -99.5 -400 -165.7C-388.4 -231.9 -387.6 -314.7 -344.2 -344.2C-300.7 -373.7 -214.5 -350.1 -150 -362.2C-85.5 -374.3 -42.8 -422.1 0 -470L0 0Z" fill="#f1c27e"></path><path d="M-228.5 0C-217.2 -24.9 -205.9 -49.7 -200 -82.9C-194.2 -116 -193.8 -157.3 -172.1 -172.1C-150.4 -186.9 -107.3 -175 -75 -181.1C-42.8 -187.1 -21.4 -211.1 0 -235L0 0Z" fill="#e9dbcb"></path></g><g transform="translate(0, 0)"><path d="M358 0C381.1 62.6 404.2 125.2 379.7 157.3C355.2 189.4 283.1 191 249.6 249.6C216.2 308.2 221.4 423.6 186.3 449.7C151.1 475.7 75.6 412.4 0 349L0 0Z" fill="#f1c27e"></path><path d="M179 0C190.6 31.3 202.1 62.6 189.9 78.6C177.6 94.7 141.5 95.5 124.8 124.8C108.1 154.1 110.7 211.8 93.1 224.8C75.6 237.9 37.8 206.2 0 174.5L0 0Z" fill="#e9dbcb"></path></g></svg>